<?xml version="1.0" standalone="no"?><!DOCTYPE svg PUBLIC "-//W3C//DTD SVG 1.1//EN"
        "http://www.w3.org/Graphics/SVG/1.1/DTD/svg11.dtd">
<svg t="1541916111953" class="icon" style="" viewBox="0 0 1024 1024" version="1.1" xmlns="http://www.w3.org/2000/svg"
     p-id="2459" xmlns:xlink="http://www.w3.org/1999/xlink" width="200" height="200">
    <defs>
        <style type="text/css"></style>
    </defs>
    <path d="M465.971469 212.129684L50.874206 624.801684c-23.929263 23.713684-34.277053 52.062316-10.347789 75.776 24.037053 23.713684 52.493474 13.635368 76.314947-10.24L465.648101 343.740632v624.101052c0 31.097263 13.527579 56.158316 44.732632 56.158316 31.258947 0 48.666947-25.061053 48.666947-56.104421V343.740632l348.483368 346.165894c23.875368 23.713684 51.631158 34.600421 75.614316 10.886737 24.037053-23.767579 14.389895-52.816842-9.593263-76.476631L558.293154 211.644632s-24.791579-28.186947-43.654737-28.186948c-22.474105 0-48.666947 28.672-48.666948 28.672zM90.217364 92.806737h843.344842c38.965895 0 61.332211-11.802947 61.332211-45.487158C994.894417 13.743158 975.492312 0 933.562206 0H90.217364C51.520943 0 28.939048 12.934737 28.939048 46.457263s23.174737 46.349474 61.278316 46.349474z"
          fill="#000000" p-id="2460"></path>
</svg>