<?xml version="1.0" standalone="no"?><!DOCTYPE svg PUBLIC "-//W3C//DTD SVG 1.1//EN" "http://www.w3.org/Graphics/SVG/1.1/DTD/svg11.dtd"><svg t="1541916022705" class="icon" style="" viewBox="0 0 1024 1024" version="1.1" xmlns="http://www.w3.org/2000/svg" p-id="2348" xmlns:xlink="http://www.w3.org/1999/xlink" width="200" height="200"><defs><style type="text/css"></style></defs><path d="M128 128h768v768z" fill="#7ED321" p-id="2349"></path><path d="M556.8 245.333333l12.8-10.666666-61.866667-61.866667 36.266667-36.266667 138.666667 138.666667-36.266667 36.266667-61.866667-61.866667-12.8 10.666667 74.666667 74.666666-10.666667 10.666667-76.8-76.8c-4.266667 2.133333-8.533333 6.4-12.8 8.533333l55.466667 55.466667-83.2 83.2 27.733333 27.733333-12.8 10.666667-170.666666-170.666667 10.666666-10.666666 27.733334 27.733333 83.2-83.2 46.933333 46.933333c4.266667-2.133333 8.533333-6.4 12.8-8.533333l-72.533333-72.533333 10.666666-10.666667 74.666667 72.533333z m-53.333333 157.866667l12.8-12.8-89.6-89.6-12.8 12.8 89.6 89.6z m21.333333-21.333333l12.8-12.8-89.6-87.466667-12.8 12.8 89.6 87.466667z m19.2-21.333334l12.8-12.8-87.466667-87.466666-12.8 12.8 87.466667 87.466666z m21.333333-21.333333l12.8-12.8-87.466666-87.466667-12.8 12.8 87.466666 87.466667z m8.533334-149.333333l-27.733334-27.733334-14.933333 14.933334 27.733333 27.733333 14.933334-14.933333z m40.533333 42.666666l-29.866667-29.866666-14.933333 14.933333 29.866667 29.866667 14.933333-14.933334z m42.666667 40.533334l-27.733334-27.733334-14.933333 14.933334 27.733333 27.733333 14.933334-14.933333zM556.8 482.133333l10.666667-14.933333c6.4 6.4 12.8 14.933333 19.2 21.333333 4.266667 4.266667 10.666667 4.266667 14.933333-2.133333l130.133333-130.133333-29.866666-29.866667 12.8-12.8 66.133333 66.133333-12.8 12.8-23.466667-23.466666-134.4 134.4c-10.666667 10.666667-23.466667 10.666667-34.133333 0l-19.2-21.333334z m228.266667 14.933334l-34.133334 34.133333c-21.333333 19.2-42.666667 29.866667-64 34.133333-21.333333 2.133333-44.8-4.266667-72.533333-19.2l4.266667-19.2c25.6 14.933333 49.066667 21.333333 66.133333 19.2 17.066667-2.133333 34.133333-10.666667 51.2-27.733333l34.133333-34.133333 14.933334 12.8z m98.133333-14.933334l-12.8 12.8-42.666667-42.666666c-6.4 6.4-14.933333 12.8-23.466666 17.066666l38.4 38.4-89.6 89.6-12.8-12.8 76.8-76.8-57.6-57.6-76.8 78.933334-12.8-12.8 89.6-89.6 32 32c8.533333-4.266667 14.933333-10.666667 23.466666-17.066667l-40.533333-40.533333 12.8-12.8 96 93.866666zM729.6 640h-19.2c2.133333-19.2 2.133333-40.533333 0-66.133333h17.066667c2.133333 23.466667 2.133333 46.933333 2.133333 66.133333z" fill="#FFFFFF" p-id="2350"></path></svg>