<?xml version="1.0" standalone="no"?><!DOCTYPE svg PUBLIC "-//W3C//DTD SVG 1.1//EN" "http://www.w3.org/Graphics/SVG/1.1/DTD/svg11.dtd"><svg t="1542791969831" class="icon" style="" viewBox="0 0 1024 1024" version="1.1" xmlns="http://www.w3.org/2000/svg" p-id="10450" xmlns:xlink="http://www.w3.org/1999/xlink" width="200" height="200"><defs><style type="text/css"></style></defs><path d="M219.37875 530.75125l107.3025-107.3025 11.9325 11.9325-107.3025 107.3025zM297.025 608.46125l-12.10875-12.10875 107.3025-107.3025 12.10875 12.10875zM241.26875 552.59l107.3025-107.3025 11.9325 11.9325-107.3025 107.3025zM263.07 574.34l107.3025-107.3025 11.9325 11.9325-107.3025 107.3025zM133.70125 469.01625l34.7375-34.7375 17.5 17.50125-34.73625 34.7375zM263.225 339.47375l17.50125 17.5-34.9125 34.9125-17.5-17.5z" fill="#1afa29" p-id="10451"></path><path d="M466.875 0L0 466.625v557.375L1024.5 0H466.875zM265.875 316.375l42.375 42.375-12.875 12.875-4.375-4.375-129.5 129.5 4.375 4.375-13.125 13.125-42.375-42.375 155.5-155.5z m0.625 344.625l-11-11 28.25-28.25-87.875-88 58.125-58.125-12.375-12.375-81.875 81.875-10.625-10.625 81.875-81.875-10.125-10.125 13.625-13.625 10.125 10.125 83.875-83.875 10.625 10.625-83.875 83.875 12.375 12.375 62.125-62.125 87.875 87.875 26.25-26.25 11 11-188.375 188.5z m215.125-217.875c-6.5 6.5-11.75 11.5-16 15.25-6.5-5.25-13.125-9.75-20-13.875 7.25-4.375 13.875-9.75 20.125-16 6.125-6.125 6.25-12 0.375-17.875L340.125 284.625l-30.625 30.625-13.875-13.875 70.625-70.625 13.875 13.875-25.125 25.125 127.375 127.375c15.125 15.125 14.875 30.5-0.75 46z m-74.875-183.375l35.5-35.5-20.375-31-42.75 43-13.75-13.75 113.125-113.125 13.625 13.625-54.875 54.875 19.5 31.75 52.375-52.375 91 91-14.625 14.625-77.25-77.25-73.125 73.125 78 78-14.625 14.625-91.75-91.625z m127.125 149.125c-6.625-1.75-14.125-3.25-22.75-4.5 17.125-30.75 24.5-57.125 22.25-79.125-2.625-20.125-15.5-41.75-38.5-64.75l-21.25-21.25 14.625-14.625 20.875 20.875c15.875 15.875 27.625 31 35.375 45.625 35.125-7.75 68-13.75 98.75-18.25l2.125 23.375c-31 2.875-62.125 7.375-93.25 13.5 1.25 3.75 2.125 7.5 2.625 11 3.75 24.75-3.125 54.125-20.875 88.125z" fill="#1afa29" p-id="10452"></path><path d="M215.765 386.9425l17.5 17.5-34.73625 34.7375-17.5-17.50125z" fill="#1afa29" p-id="10453"></path></svg>